<svg width="211" height="47" viewBox="0 0 211 47" fill="none" xmlns="http://www.w3.org/2000/svg">
<path d="M17.15 36.6C13.6833 36.6 10.6833 35.85 8.15 34.35C5.65 32.8167 3.71667 30.7 2.35 28C0.983334 25.2667 0.3 22.1167 0.3 18.55C0.3 14.95 0.983334 11.8 2.35 9.1C3.71667 6.36667 5.65 4.23333 8.15 2.7C10.6833 1.16667 13.6833 0.399999 17.15 0.399999C21.25 0.399999 24.6 1.4 27.2 3.4C29.8 5.4 31.45 8.2 32.15 11.8H26.25C25.7833 9.76667 24.7833 8.15 23.25 6.95C21.7167 5.75 19.6667 5.15 17.1 5.15C13.6 5.15 10.8333 6.35 8.8 8.75C6.76667 11.1167 5.75 14.3833 5.75 18.55C5.75 22.6833 6.76667 25.9333 8.8 28.3C10.8333 30.6667 13.6 31.85 17.1 31.85C19.6667 31.85 21.7167 31.2833 23.25 30.15C24.7833 29.0167 25.7833 27.4667 26.25 25.5H32.15C31.45 28.9667 29.8 31.6833 27.2 33.65C24.6 35.6167 21.25 36.6 17.15 36.6ZM46.1758 36.6C44.0758 36.6 42.3424 36.25 40.9758 35.55C39.6091 34.85 38.5924 33.9333 37.9258 32.8C37.2591 31.6333 36.9258 30.3667 36.9258 29C36.9258 26.6 37.8591 24.7 39.7258 23.3C41.5924 21.9 44.2591 21.2 47.7258 21.2H54.2258V20.75C54.2258 18.8167 53.6924 17.3667 52.6258 16.4C51.5924 15.4333 50.2424 14.95 48.5758 14.95C47.1091 14.95 45.8258 15.3167 44.7258 16.05C43.6591 16.75 43.0091 17.8 42.7758 19.2H37.4758C37.6424 17.4 38.2424 15.8667 39.2758 14.6C40.3424 13.3 41.6758 12.3167 43.2758 11.65C44.9091 10.95 46.6924 10.6 48.6258 10.6C52.0924 10.6 54.7758 11.5167 56.6758 13.35C58.5758 15.15 59.5258 17.6167 59.5258 20.75V36H54.9258L54.4758 31.75C53.7758 33.1167 52.7591 34.2667 51.4258 35.2C50.0924 36.1333 48.3424 36.6 46.1758 36.6ZM47.2258 32.3C48.6591 32.3 49.8591 31.9667 50.8258 31.3C51.8258 30.6 52.5924 29.6833 53.1258 28.55C53.6924 27.4167 54.0424 26.1667 54.1758 24.8H48.2758C46.1758 24.8 44.6758 25.1667 43.7758 25.9C42.9091 26.6333 42.4758 27.55 42.4758 28.65C42.4758 29.7833 42.8924 30.6833 43.7258 31.35C44.5924 31.9833 45.7591 32.3 47.2258 32.3ZM65.7055 36V11.2H70.4555L70.9055 15.9C71.7721 14.2667 72.9721 12.9833 74.5055 12.05C76.0721 11.0833 77.9555 10.6 80.1555 10.6V16.15H78.7055C77.2388 16.15 75.9221 16.4 74.7555 16.9C73.6221 17.3667 72.7055 18.1833 72.0055 19.35C71.3388 20.4833 71.0055 22.0667 71.0055 24.1V36H65.7055ZM95.616 36.6C93.1827 36.6 91.016 36.0667 89.116 35C87.2493 33.9 85.7827 32.3833 84.716 30.45C83.6493 28.5167 83.116 26.2667 83.116 23.7C83.116 21.1 83.6327 18.8167 84.666 16.85C85.7327 14.8833 87.1993 13.35 89.066 12.25C90.966 11.15 93.166 10.6 95.666 10.6C98.0994 10.6 100.216 11.15 102.016 12.25C103.816 13.3167 105.216 14.75 106.216 16.55C107.216 18.35 107.716 20.3333 107.716 22.5C107.716 22.8333 107.699 23.2 107.666 23.6C107.666 23.9667 107.649 24.3833 107.616 24.85H88.316C88.4827 27.25 89.266 29.0833 90.666 30.35C92.0993 31.5833 93.7493 32.2 95.616 32.2C97.116 32.2 98.366 31.8667 99.366 31.2C100.399 30.5 101.166 29.5667 101.666 28.4H106.966C106.299 30.7333 104.966 32.6833 102.966 34.25C100.999 35.8167 98.5494 36.6 95.616 36.6ZM95.616 14.95C93.8493 14.95 92.2827 15.4833 90.916 16.55C89.5493 17.5833 88.716 19.15 88.416 21.25H102.416C102.316 19.3167 101.633 17.7833 100.366 16.65C99.0993 15.5167 97.516 14.95 95.616 14.95ZM113.415 36V0.999998H119.665L131.515 24.3L143.315 0.999998H149.565V36H144.265V10.15L133.565 31H129.465L118.715 10.2V36H113.415ZM164.877 36.6C162.777 36.6 161.044 36.25 159.677 35.55C158.31 34.85 157.294 33.9333 156.627 32.8C155.96 31.6333 155.627 30.3667 155.627 29C155.627 26.6 156.56 24.7 158.427 23.3C160.294 21.9 162.96 21.2 166.427 21.2H172.927V20.75C172.927 18.8167 172.394 17.3667 171.327 16.4C170.294 15.4333 168.944 14.95 167.277 14.95C165.81 14.95 164.527 15.3167 163.427 16.05C162.36 16.75 161.71 17.8 161.477 19.2H156.177C156.344 17.4 156.944 15.8667 157.977 14.6C159.044 13.3 160.377 12.3167 161.977 11.65C163.61 10.95 165.394 10.6 167.327 10.6C170.794 10.6 173.477 11.5167 175.377 13.35C177.277 15.15 178.227 17.6167 178.227 20.75V36H173.627L173.177 31.75C172.477 33.1167 171.46 34.2667 170.127 35.2C168.794 36.1333 167.044 36.6 164.877 36.6ZM165.927 32.3C167.36 32.3 168.56 31.9667 169.527 31.3C170.527 30.6 171.294 29.6833 171.827 28.55C172.394 27.4167 172.744 26.1667 172.877 24.8H166.977C164.877 24.8 163.377 25.1667 162.477 25.9C161.61 26.6333 161.177 27.55 161.177 28.65C161.177 29.7833 161.594 30.6833 162.427 31.35C163.294 31.9833 164.46 32.3 165.927 32.3ZM184.407 47V11.2H189.157L189.707 15.05C190.507 13.8833 191.607 12.85 193.007 11.95C194.407 11.05 196.207 10.6 198.407 10.6C200.807 10.6 202.923 11.1667 204.757 12.3C206.59 13.4333 208.023 14.9833 209.057 16.95C210.123 18.9167 210.657 21.15 210.657 23.65C210.657 26.15 210.123 28.3833 209.057 30.35C208.023 32.2833 206.59 33.8167 204.757 34.95C202.923 36.05 200.79 36.6 198.357 36.6C196.423 36.6 194.707 36.2167 193.207 35.45C191.74 34.6833 190.573 33.6 189.707 32.2V47H184.407ZM197.457 32C199.723 32 201.59 31.2333 203.057 29.7C204.523 28.1333 205.257 26.1 205.257 23.6C205.257 21.9667 204.923 20.5167 204.257 19.25C203.59 17.9833 202.673 17 201.507 16.3C200.34 15.5667 198.99 15.2 197.457 15.2C195.19 15.2 193.323 15.9833 191.857 17.55C190.423 19.1167 189.707 21.1333 189.707 23.6C189.707 26.1 190.423 28.1333 191.857 29.7C193.323 31.2333 195.19 32 197.457 32Z" fill="url(#paint0_linear_20_5)"/>
<defs>
<linearGradient id="paint0_linear_20_5" x1="-27.8195" y1="-14" x2="222.607" y2="18.5" gradientUnits="userSpaceOnUse">
<stop stop-color="#61AFCB"/>
<stop offset="1" stop-color="#A5FAE2"/>
</linearGradient>
</defs>
</svg>
